# File created by Blade
# Date/Time:  Thu Jan 22 16:00:44 2015
# Frame Rate: 120.000 fps
#------------------------------------------------------
:FULLY-SPECIFIED
:DEGREES
2091
root 1.741481 37.120914 7.929607 3.744520 -5.261544 1.381448
RightUpLeg 7.854037 0.731856 -3.157752
RightLeg -7.429887 -0.000000 0.000000
RightFoot -9.196184 -7.213805 17.942821
RightToeBase 13.180019 -0.000000 -0.000000
LeftUpLeg 5.913257 6.147582 4.615829
LeftLeg -3.815611 -0.000000 0.000000
LeftFoot -6.605816 8.038421 -19.967955
LeftToeBase 6.346256 -0.000000 -0.000000
Spine -10.631285 1.648724 -2.077035
RightShoulder 12.360389 -31.212622 -14.285586
RightArm 126.729246 -52.398283 -37.300017
RightForeArm -36.327849 -0.000000 121.862921
RightHand 32.129027 -0.000000 -24.253305
RightHandThumb1 -24.326973 -0.000000 -32.862282
LeftShoulder -22.082796 13.640727 26.539829
LeftArm 176.492654 -33.265281 -110.634248
LeftForeArm -29.456515 0.000000 150.432403
LeftHand -3.469520 0.000000 -2.680001
LeftHandThumb1 -26.253704 0.000000 33.147579
Head 35.643894 -1.190562 5.098811
2092
root 1.739920 37.121357 7.928571 3.718223 -5.248967 1.358188
RightUpLeg 7.872277 0.705647 -3.129941
RightLeg -7.410066 -0.000000 0.000000
RightFoot -9.202474 -7.202044 17.947667
RightToeBase 13.234025 -0.000000 -0.000000
LeftUpLeg 5.936687 6.114200 4.643270
LeftLeg -3.812083 -0.000000 0.000000
LeftFoot -6.624903 8.061597 -19.964214
LeftToeBase 6.388780 -0.000000 -0.000000
Spine -10.652651 1.534330 -2.008872
RightShoulder 12.326110 -30.946104 -14.223726
RightArm 126.625199 -52.327015 -37.424578
RightForeArm -35.869919 0.000000 121.768948
RightHand 32.162040 0.000000 -24.629449
RightHandThumb1 -24.326973 -0.000000 -32.862282
LeftShoulder -22.042333 13.654705 26.617737
LeftArm 175.771981 -33.240576 -110.875661
LeftForeArm -30.551847 -0.000000 150.212383
LeftHand -3.282264 -0.000000 -3.333208
LeftHandThumb1 -26.253704 0.000000 33.147579
Head 35.861850 -1.037510 5.273308
2093
root 1.739053 37.121171 7.926752 3.697499 -5.235640 1.344272
RightUpLeg 7.886634 0.701789 -3.113806
RightLeg -7.395128 -0.000000 0.000000
RightFoot -9.201900 -7.202020 17.943974
RightToeBase 13.180741 -0.000000 -0.000000
LeftUpLeg 5.952112 6.090146 4.660934
LeftLeg -3.810355 -0.000000 0.000000
LeftFoot -6.615759 8.051964 -20.032808
LeftToeBase 6.315121 -0.000000 -0.000000
Spine -10.677469 1.383327 -1.952781
RightShoulder 12.320537 -30.634507 -14.164316
RightArm 126.552876 -52.265166 -37.585768
RightForeArm -35.438976 -0.000000 121.637086
RightHand 32.242949 -0.000000 -25.062422
RightHandThumb1 -24.326973 -0.000000 -32.862282
LeftShoulder -22.013458 13.685612 26.688207
LeftArm 175.055039 -33.196650 -111.179621
LeftForeArm -31.402031 -0.000000 149.962417
LeftHand -3.100624 -0.000000 -4.245306
LeftHandThumb1 -26.253704 0.000000 33.147579
Head 36.055027 -0.888753 5.442259
2094
root 1.737813 37.120996 7.926080 3.657947 -5.216326 1.330605
RightUpLeg 7.921692 0.675125 -3.097719
RightLeg -7.380485 -0.000000 0.000000
RightFoot -9.200018 -7.186032 17.936630
RightToeBase 13.213587 -0.000000 -0.000000
LeftUpLeg 5.986665 6.080371 4.680726
LeftLeg -3.804141 -0.000000 0.000000
LeftFoot -6.638644 8.063281 -19.946773
LeftToeBase 6.397489 -0.000000 -0.000000
Spine -10.672392 1.187425 -1.883820
RightShoulder 12.321286 -30.385425 -14.120652
RightArm 126.391571 -52.128268 -37.676271
RightForeArm -34.793177 -0.000000 121.504896
RightHand 32.354945 -0.000000 -25.409803
RightHandThumb1 -24.326973 -0.000000 -32.862282
LeftShoulder -22.064012 13.798876 26.714620
LeftArm 174.331207 -33.168361 -111.527125
LeftForeArm -31.947973 -0.000000 149.738592
LeftHand -3.145359 -0.000000 -4.723311
LeftHandThumb1 -26.253704 0.000000 33.147579
Head 36.235769 -0.684410 5.613695
2095
root 1.736806 37.121582 7.922725 3.621080 -5.206598 1.312369
RightUpLeg 7.946917 0.686532 -3.074743
RightLeg -7.363858 -0.000000 0.000000
RightFoot -9.208145 -7.199381 17.973862
RightToeBase 13.236195 -0.000000 -0.000000
LeftUpLeg 6.013732 6.068441 4.703757
LeftLeg -3.796317 -0.000000 0.000000
LeftFoot -6.649859 8.069348 -19.948271
LeftToeBase 6.407524 -0.000000 -0.000000
Spine -10.675186 1.069079 -1.792424
RightShoulder 12.256914 -30.129151 -14.068462
RightArm 126.143457 -52.043988 -37.662324
RightForeArm -34.331455 -0.000000 121.321296
RightHand 32.383279 -0.000000 -25.838761
RightHandThumb1 -24.326973 -0.000000 -32.862282
LeftShoulder -21.987640 13.796997 26.754110
LeftArm 173.454800 -33.278399 -111.857971
LeftForeArm -32.142804 -0.000000 149.527231
LeftHand -3.078404 -0.000000 -5.173311
LeftHandThumb1 -26.253704 0.000000 33.147579
Head 36.399094 -0.475929 5.806059
2096
root 1.735809 37.122260 7.921798 3.569030 -5.175405 1.295431
RightUpLeg 8.000678 0.682772 -3.052700
RightLeg -7.355057 -0.000000 0.000000
RightFoot -9.204321 -7.217143 17.965439
RightToeBase 13.201820 -0.000000 -0.000000
LeftUpLeg 6.055391 6.053580 4.727717
LeftLeg -3.785942 -0.000000 0.000000
LeftFoot -6.656570 8.064158 -19.938928
LeftToeBase 6.442659 -0.000000 -0.000000
Spine -10.675402 1.056643 -1.710334
RightShoulder 12.127592 -29.895470 -13.984306
RightArm 125.879522 -52.031786 -37.601025
RightForeArm -33.987416 -0.000000 121.125191
RightHand 32.364730 -0.000000 -26.316463
RightHandThumb1 -24.326973 -0.000000 -32.862282
LeftShoulder -21.802555 13.609469 26.886897
LeftArm 172.278326 -33.613376 -112.104617
LeftForeArm -31.730529 -0.000000 149.383809
LeftHand -3.475578 -0.000000 -5.016402
LeftHandThumb1 -26.253704 0.000000 33.147579
Head 36.589930 -0.370465 5.974464
2097
root 1.734745 37.122435 7.919254 3.532532 -5.150709 1.281709
RightUpLeg 8.030953 0.673585 -3.035135
RightLeg -7.339302 -0.000000 0.000000
RightFoot -9.211040 -7.223663 17.989356
RightToeBase 13.209630 -0.000000 -0.000000
LeftUpLeg 6.076928 6.051129 4.747927
LeftLeg -3.770272 -0.000000 0.000000
LeftFoot -6.661697 8.047532 -19.937651
LeftToeBase 6.403540 -0.000000 -0.000000
Spine -10.675465 0.906862 -1.639980
RightShoulder 12.066130 -29.623760 -13.887234
RightArm 125.709056 -51.969359 -37.664622
RightForeArm -33.633455 -0.000000 120.975035
RightHand 32.394544 0.000000 -26.706421
RightHandThumb1 -24.326973 -0.000000 -32.862282
LeftShoulder -21.786616 13.653786 26.967223
LeftArm 171.243500 -33.933024 -112.481593
LeftForeArm -31.555490 -0.000000 149.111728
LeftHand -3.653600 0.000000 -4.972423
LeftHandThumb1 -26.253704 0.000000 33.147579
Head 36.742009 -0.208620 6.187712
